<?xml version="1.0" encoding="utf-8"?>
<!-- Generator: Adobe Illustrator 17.0.0, SVG Export Plug-In . SVG Version: 6.00 Build 0)  -->
<!DOCTYPE svg PUBLIC "-//W3C//DTD SVG 1.1//EN" "http://www.w3.org/Graphics/SVG/1.1/DTD/svg11.dtd">
<svg version="1.1" id="Layer_1" xmlns="http://www.w3.org/2000/svg" xmlns:xlink="http://www.w3.org/1999/xlink" x="0px" y="0px"
	 width="28px" height="20px" viewBox="0 0 28 20" enable-background="new 0 0 28 20" xml:space="preserve">
<path fill-rule="evenodd" clip-rule="evenodd" fill="#FFFFFF" d="M28,16.818C28,18.324,27.263,20,25.812,20H3.063
	C1.613,20,0,18.324,0,16.818V2.272c0-0.073,0.021-0.136,0.028-0.205c-0.047-0.263,0.004-0.542,0.185-0.759
	c0.047-0.056,0.1-0.102,0.155-0.143C0.924,0.396,2.029,0,3.063,0h22.749c1.199,0,1.902,0.531,2.113,1.563
	c0.058,0.148,0.078,0.303,0.058,0.459C27.989,2.106,28,2.184,28,2.272V16.818z M3.063,18.181h22.749
	c0.483,0,0.438-0.862,0.438-1.363V3.794l-11.677,9.705c-0.165,0.149-0.369,0.222-0.573,0.222c-0.205,0-0.409-0.073-0.573-0.222
	L1.75,3.794v13.024C1.75,17.319,2.58,18.181,3.063,18.181 M25.375,1.818H3.063c-0.243,0-0.571-0.012-0.84,0.04L14,11.609
	l11.825-9.791h-0.013H25.375z"/>
<rect x="0" y="-0.001" fill="none" width="28" height="20"/>
</svg>
