<?xml version="1.0" encoding="utf-8"?>
<!-- Generator: Adobe Illustrator 17.0.0, SVG Export Plug-In . SVG Version: 6.00 Build 0)  -->
<!DOCTYPE svg PUBLIC "-//W3C//DTD SVG 1.1//EN" "http://www.w3.org/Graphics/SVG/1.1/DTD/svg11.dtd">
<svg version="1.1" id="Layer_1" xmlns="http://www.w3.org/2000/svg" xmlns:xlink="http://www.w3.org/1999/xlink" x="0px" y="0px"
	 width="27.975px" height="25.911px" viewBox="0 0 27.975 25.911" enable-background="new 0 0 27.975 25.911" xml:space="preserve">
<g>
	<path fill="#FFFFFF" d="M13.257,8.867c0,0.704,0.264,1.32,0.814,1.849l1.628-0.616c-0.308-0.264-0.528-0.682-0.528-1.034
		c0-0.924,0.814-1.474,1.694-2.112c1.144-0.792,2.398-1.694,2.398-3.521c0-1.936-1.65-3.432-4.379-3.432
		c-2.046,0-3.696,0.836-4.774,2.222l1.276,1.408c0.77-1.012,1.782-1.672,3.279-1.672c1.584,0,2.332,0.836,2.332,1.804
		c0,1.012-0.814,1.562-1.694,2.178C14.313,6.645,13.257,7.393,13.257,8.867z M13.323,13.752c0,0.748,0.616,1.386,1.364,1.386
		c0.748,0,1.387-0.638,1.387-1.386c0-0.748-0.638-1.364-1.387-1.364C13.939,12.388,13.323,13.004,13.323,13.752z"/>
</g>
<g>
	<path fill="#FFFFFF" d="M7.424,25.911c-0.142,0-0.285-0.03-0.418-0.092c-0.354-0.163-0.582-0.518-0.582-0.908v-4.494H1
		c-0.552,0-1-0.447-1-1V2.321c0-0.553,0.448-1,1-1h6.351c0.552,0,1,0.447,1,1s-0.448,1-1,1H2v15.096h5.424c0.552,0,1,0.447,1,1
		v3.323l4.777-4.083c0.181-0.155,0.412-0.24,0.65-0.24h12.124V3.321h-3.712c-0.552,0-1-0.447-1-1s0.448-1,1-1h4.712
		c0.552,0,1,0.447,1,1v17.096c0,0.553-0.448,1-1,1H14.22l-6.146,5.254C7.89,25.829,7.658,25.911,7.424,25.911z"/>
</g>
</svg>
