<svg id="Layer_1" enable-background="new 0 0 64 64" height="512" viewBox="0 0 64 64" width="512" xmlns="http://www.w3.org/2000/svg"><path d="m34.5 13h2.3c.6 0 1-.4 1-1s-.4-1-1-1h-2.3c-.6 0-1 .4-1 1s.4 1 1 1z"/><path d="m12 43c-1.7 0-3 1.3-3 3 0 .6.4 1 1 1s1-.4 1-1 .4-1 1-1 1-.4 1-1-.4-1-1-1z"/><path d="m55 46c0-.6-.4-1-1-1s-1 .4-1 1-.4 1-1 1-1 .4-1 1 .4 1 1 1c1.7 0 3-1.3 3-3z"/><path d="m37.3 43c1 0 1.7-.7 1.7-1.7v-1.3c0-.6-.4-1-1-1s-1 .4-1 1v1h-5c-.6 0-1 .4-1 1s.4 1 1 1z"/><path d="m28 43c.6 0 1-.4 1-1s-.4-1-1-1h-2c-.6 0-1 .4-1 1s.4 1 1 1z"/><path d="m54 19h-3.4c-.9 0-1.6.7-1.6 1.6v1.4c0 .6.4 1 1 1s1-.4 1-1v-1h3c.6 0 1-.4 1-1s-.4-1-1-1z"/><path d="m62 39.1c.6 0 1-.4 1-1v-8.5c0-.1-5-11.6-5-11.6-.9-1.9-2.8-3.1-4.8-3.1h-10.2v-1.5c0-1.4-1.1-2.5-2.5-2.5-.6 0-1 .4-1 1s.4 1 1 1c.2 0 .5.3.5.5v21.6h-31c-.6 0-1 .4-1 1s.4 1 1 1h31v8h-2.5c-.6 0-1 .4-1 1s.4 1 1 1h3.5 3.1c.2 1.6 1 2.9 2 4h-3.1c-.6 0-1 .4-1 1s.4 1 1 1h18c.6 0 1-.4 1-1s-.4-1-1-1h-5.1c1.1-1.1 1.8-2.4 2-4h3.1c.6 0 1-.4 1-1v-4c0-.6-.4-1-1-1s-1 .4-1 1v3h-2.1c-.5-3.4-3.4-6-6.9-6-.6 0-1 .4-1 1s.4 1 1 1c2.8 0 5 2.2 5 5s-2.2 5-5 5-5-2.2-5-5c0-1.5.7-3 1.9-3.9.4-.3.5-1 .2-1.4s-1-.5-1.4-.2c-1.4 1.1-2.3 2.7-2.6 4.5h-2.1v-28h2v13c0 .6.4 1 1 1h15v7.1c0 .6.4 1 1 1zm-15-10.1v-12h6.2c1.3 0 2.4.8 3 1.9l4.3 10.1z"/><path d="m20 51h-3.1c1.1-1.1 1.8-2.4 2-4h15.1c.6 0 1-.4 1-1s-.4-1-1-1h-15.1c-.5-3.4-3.4-6-6.9-6s-6.4 2.6-6.9 6h-2.1v-8h3c.6 0 1-.4 1-1s-.4-1-1-1h-3v-21c0-.6.4-1 1-1h26.8c.6 0 1-.4 1-1s-.4-1-1-1h-26.8c-1.7 0-3 1.3-3 3v30.8c0 1.2 1 2.2 2.2 2.2h1.9c.2 1.6 1 2.9 2 4h-5.1c-.6 0-1 .4-1 1s.4 1 1 1h18c.6 0 1-.4 1-1s-.4-1-1-1zm-8 0c-2.8 0-5-2.2-5-5s2.2-5 5-5 5 2.2 5 5-2.2 5-5 5z"/><path d="m40 51h-16c-.6 0-1 .4-1 1s.4 1 1 1h16c.6 0 1-.4 1-1s-.4-1-1-1z"/><path d="m12 21c.6 0 1-.4 1-1s-.4-1-1-1h-4c-.6 0-1 .4-1 1v8c0 .6.4 1 1 1s1-.4 1-1v-3h3c.6 0 1-.4 1-1s-.4-1-1-1h-3v-2z"/><path d="m21 22c0-1.7-1.3-3-3-3h-2c-.6 0-1 .4-1 1v8c0 .6.4 1 1 1s1-.4 1-1v-3h.4l1.7 3.4c.2.4.6.6 1.3.4.5-.1.7-.8.4-1.3l-1.5-2.9c1.1-.5 1.7-1.5 1.7-2.6zm-3 1h-1v-2h1c.6 0 1 .4 1 1s-.4 1-1 1z"/><path d="m28 21c.6 0 1-.4 1-1s-.4-1-1-1h-4c-.6 0-1 .4-1 1v8c0 .6.4 1 1 1h4c.6 0 1-.4 1-1s-.4-1-1-1h-3v-2h3c.6 0 1-.4 1-1s-.4-1-1-1h-3v-2z"/><path d="m31 20v8c0 .6.4 1 1 1h4c.6 0 1-.4 1-1s-.4-1-1-1h-3v-2h3c.6 0 1-.4 1-1s-.4-1-1-1h-3v-2h3c.6 0 1-.4 1-1s-.4-1-1-1h-4c-.6 0-1 .4-1 1z"/></svg>