<svg id="Layer_1" enable-background="new 0 0 64 64" height="512" viewBox="0 0 64 64" width="512" xmlns="http://www.w3.org/2000/svg"><g><g id="LINE_304_"><g><path d="m46 46.005c-.553 0-1-.448-1-1v-8c0-.552.447-1 1-1s1 .448 1 1v8c0 .552-.447 1-1 1z"/></g></g><g id="LINE_305_"><g><path d="m54 46.005h-8c-.553 0-1-.448-1-1s.447-1 1-1h8c.553 0 1 .448 1 1s-.447 1-1 1z"/></g></g><g id="LWPOLYLINE_55_"><g><path d="m26.785 56.005c-.173 0-.345-.044-.5-.134l-20.785-12c-.31-.179-.5-.509-.5-.866v-24c0-.357.19-.688.5-.866l20.785-12c.31-.179.69-.179 1 0l20.785 12c.31.179.5.509.5.866v10.077c0 .552-.447 1-1 1s-1-.448-1-1v-9.5l-19.785-11.422-19.785 11.422v22.846l19.785 11.422 4.41-2.546c.479-.277 1.09-.113 1.366.366s.112 1.09-.366 1.366l-4.91 2.834c-.155.09-.327.135-.5.135z"/></g></g><g id="CIRCLE_14_"><g><path d="m45.906 57.996c-.001 0 0 0 0 0-1.245 0-2.484-.185-3.685-.549-4.602-1.396-8.136-5.35-9.006-10.074-.886-4.809 1.064-9.816 4.971-12.758 2.222-1.673 5.006-2.595 7.839-2.595 2.05 0 4.08.483 5.873 1.398 4.315 2.2 7.102 6.748 7.102 11.587 0 3.488-1.406 6.771-3.96 9.242-2.46 2.382-5.79 3.749-9.134 3.749zm.119-23.976c-2.401 0-4.759.779-6.636 2.192-3.306 2.49-4.957 6.729-4.207 10.798.735 3.997 3.727 7.342 7.619 8.522 3.747 1.137 7.982.051 10.848-2.723 2.162-2.09 3.351-4.862 3.351-7.804 0-4.095-2.359-7.944-6.01-9.806-1.512-.771-3.229-1.179-4.965-1.179z"/></g></g><g id="LINE_306_"><g><path d="m14.393 24.85c-.346 0-.682-.179-.867-.5-.276-.479-.112-1.09.366-1.366l20.785-12c.476-.277 1.089-.113 1.366.366.276.479.112 1.09-.366 1.366l-20.785 12c-.157.091-.329.134-.499.134z"/></g></g><g id="LINE_307_"><g><path d="m18.393 27.16c-.346 0-.682-.179-.867-.5-.276-.479-.112-1.09.366-1.366l20.785-12c.477-.276 1.089-.113 1.366.366.276.479.112 1.09-.366 1.366l-20.785 12c-.157.091-.329.134-.499.134z"/></g></g><g id="LINE_308_"><g><path d="m18.392 34.088c-.552 0-1-.448-1-1v-6.928c0-.552.448-1 1-1s1 .448 1 1v6.928c0 .552-.448 1-1 1z"/></g></g><g id="LINE_309_"><g><path d="m18.391 34.088c-.169 0-.342-.043-.499-.134l-4-2.31c-.479-.276-.642-.888-.366-1.366s.888-.644 1.366-.366l4 2.31c.479.276.642.888.366 1.366-.185.321-.521.5-.867.5z"/></g></g><g id="LINE_310_"><g><path d="m14.392 31.778c-.552 0-1-.448-1-1v-6.928c0-.552.448-1 1-1s1 .448 1 1v6.928c0 .553-.448 1-1 1z"/></g></g><g id="LINE_311_"><g><path d="m26.785 56.005c-.552 0-1-.448-1-1v-24c0-.552.448-1 1-1s1 .448 1 1v24c0 .552-.448 1-1 1z"/></g></g><g id="LINE_312_"><g><path d="m26.784 32.005c-.169 0-.341-.043-.499-.134l-20.785-12c-.479-.276-.642-.888-.366-1.366s.887-.643 1.366-.366l20.785 12c.479.276.642.888.366 1.366-.186.321-.522.5-.867.5z"/></g></g><g id="LINE_313_"><g><path d="m26.786 32.005c-.346 0-.682-.179-.867-.5-.276-.479-.112-1.09.366-1.366l20.785-12c.477-.277 1.089-.113 1.366.366.276.479.112 1.09-.366 1.366l-20.785 12c-.158.091-.33.134-.499.134z"/></g></g></g></svg>