<svg height="512" viewBox="0 0 50 60" width="512" xmlns="http://www.w3.org/2000/svg"><g id="Page-1" fill="none" fill-rule="evenodd"><g id="012---SSL-Shield" fill="rgb(0,0,0)" fill-rule="nonzero" transform="translate(0 -1)"><path id="Shape" d="m23.552 60.688c.9211948.4193146 1.9788052.4193146 2.9 0 14.3178553-6.5247404 23.5179148-20.7975692 23.548-36.532v-13.008c-.0035489-1.85232007-1.4390031-3.38646997-3.287-3.513-3.9-.254-13.6-1.338-19.526-5.887-1.2853499-1.00344167-3.0886501-1.00344167-4.374 0-5.927 4.552-15.629 5.633-19.526 5.887-1.84799686.12653003-3.28345109 1.66067993-3.287 3.513v13.008c.00486208 15.7430142 9.21490552 30.0289053 23.552 36.532zm-21.552-49.54c.0012104-.7991048.61983208-1.46138358 1.417-1.517 5.066-.331 14.483-1.589 20.614-6.297.5692959-.44520044 1.3687041-.44520044 1.938 0 6.131 4.708 15.548 5.966 20.614 6.297.7971679.05561642 1.4157896.7178952 1.417 1.517v13.008c-.0295383 14.9512077-8.7730378 28.5128329-22.379 34.711-.3955325.1765199-.8474675.1765199-1.243 0-13.6225628-6.1787901-22.37357197-19.7526698-22.378-34.711z"/><path id="Shape" d="m24.1 56.522c.5675624.2790166 1.2324376.2790166 1.8 0 12.2620452-6.140903 20.0319385-18.6523641 20.1-32.366v-10.728c.0000129-1.0271307-.7780179-1.8872869-1.8-1.99-5.184-.528-12.533-1.923-18.1-5.568-.6629687-.43395182-1.5200313-.43395182-2.183 0-5.572 3.645-12.921 5.04-18.1 5.568-1.02871323.0945234-1.81616829.9569536-1.817 1.99v10.728c-.00898706 7.1117179 2.09235735 14.0662005 6.038 19.983 3.5245452 5.2857002 8.3729904 9.555242 14.062 12.383zm-18.093-43.094c5.4-.551 13.088-2.019 18.99-5.885 5.908 3.866 13.591 5.334 19 5.885v10.728c-.0653369 12.9543213-7.405676 24.7725418-18.989 30.573h-.02c-5.3760043-2.6712729-9.95767-6.7054005-13.288-11.7-3.72521501-5.5885884-5.70889033-12.1566418-5.7-18.873z"/><path id="Shape" d="m22 47h6c1.1045695 0 2-.8954305 2-2v-6c0-1.1045695-.8954305-2-2-2v-1c0-1.6568542-1.3431458-3-3-3s-3 1.3431458-3 3v1c-1.1045695 0-2 .8954305-2 2v6c0 1.1045695.8954305 2 2 2zm2-11c0-.5522847.4477153-1 1-1s1 .4477153 1 1v1h-2zm-2 3h6v6h-6z"/><circle id="Oval" cx="25" cy="42" r="1"/><path id="Shape" d="m15 28c-1.1045695 0-2-.8954305-2-2 0-.5522847-.4477153-1-1-1s-1 .4477153-1 1c0 2.209139 1.790861 4 4 4s4-1.790861 4-4-1.790861-4-4-4c-1.1045695 0-2-.8954305-2-2s.8954305-2 2-2 2 .8954305 2 2c0 .5522847.4477153 1 1 1s1-.4477153 1-1c0-2.209139-1.790861-4-4-4s-4 1.790861-4 4 1.790861 4 4 4c1.1045695 0 2 .8954305 2 2s-.8954305 2-2 2z"/><path id="Shape" d="m25 28c-1.1045695 0-2-.8954305-2-2 0-.5522847-.4477153-1-1-1s-1 .4477153-1 1c0 2.209139 1.790861 4 4 4s4-1.790861 4-4-1.790861-4-4-4c-1.1045695 0-2-.8954305-2-2s.8954305-2 2-2 2 .8954305 2 2c0 .5522847.4477153 1 1 1s1-.4477153 1-1c0-2.209139-1.790861-4-4-4s-4 1.790861-4 4 1.790861 4 4 4c1.1045695 0 2 .8954305 2 2s-.8954305 2-2 2z"/><path id="Shape" d="m34 30h3c.5522847 0 1-.4477153 1-1s-.4477153-1-1-1h-3c-.5522847 0-1-.4477153-1-1v-10c0-.5522847-.4477153-1-1-1s-1 .4477153-1 1v10c0 1.6568542 1.3431458 3 3 3z"/></g></g></svg>