<svg id="Capa_1" enable-background="new 0 0 512 512" height="512" viewBox="0 0 512 512" width="512" xmlns="http://www.w3.org/2000/svg"><g><g><g><g><path d="m478.98 381.834c.004-.007.008-.014.012-.021 21.594-38.176 33.008-81.68 33.008-125.813 0-7.223-.307-14.544-.914-21.76 0-.007-.001-.013-.001-.02-5.372-63.705-34.288-122.768-81.422-166.309-47.407-43.793-109.082-67.911-173.663-67.911s-126.256 24.118-173.663 67.912c-47.134 43.541-76.05 102.604-81.422 166.309 0 .006-.001.013-.001.019-.607 7.216-.914 14.537-.914 21.76 0 44.135 11.415 87.641 33.011 125.818.002.003.003.006.005.009.007.013.014.026.022.038.009.017.019.033.029.05.008.014.016.028.024.042 21.941 38.754 53.763 71.29 92.034 94.101 39.45 23.513 84.707 35.942 130.875 35.942s91.425-12.429 130.876-35.942c38.271-22.81 70.093-55.347 92.034-94.101.009-.015.017-.03.026-.046.009-.015.018-.031.027-.046.006-.01.012-.021.017-.031zm-412.497-156.773c14.929-92.57 94.53-161.061 189.517-161.061s174.588 68.491 189.517 161.061zm189.517-205.061c118 0 218.724 89.221 233.985 205.061h-24.239c-7.108-48.363-30.819-92.834-67.387-126.027-39.096-35.49-89.653-55.034-142.359-55.034s-103.263 19.544-142.358 55.033c-36.568 33.194-60.279 77.664-67.387 126.027h-24.24c15.261-115.839 115.985-205.06 233.985-205.06zm-235.749 225.064h471.499c.166 3.653.25 7.307.25 10.936 0 38.765-9.545 76.99-27.654 110.94l-163.14-.004c-5.522 0-10 4.478-10 10 0 5.523 4.477 10 10 10l95.134.002c-36.263 39.041-86.367 61.062-140.34 61.062s-104.077-22.021-140.34-61.062l95.134-.002c5.523 0 10-4.477 10-10s-4.477-10-10-10l-116.492.003c-.013 0-.026 0-.038 0l-46.61.001c-18.109-33.95-27.654-72.175-27.654-110.94 0-3.629.084-7.283.251-10.936zm235.749 246.936c-79.067 0-152.788-39.846-196.367-105.061l29.742-.001c18.933 24.025 43.135 43.974 70.271 57.875 30.034 15.386 62.452 23.187 96.354 23.187s66.32-7.801 96.353-23.186c27.136-13.902 51.338-33.85 70.271-57.875l29.742.001c-43.578 65.214-117.299 105.06-196.366 105.06z"/><path d="m247.87 371.38c-2.391 3.648-2.188 8.504.582 11.896 2.532 3.101 6.808 4.39 10.634 3.223 4.164-1.27 7.093-5.202 7.094-9.56.001-4.183-2.69-8.007-6.63-9.414-4.253-1.52-9.174.09-11.68 3.855z"/><path d="m200.624 340.094c1.172.446 2.374.658 3.558.658 4.029 0 7.828-2.454 9.347-6.443l2.176-5.714h16.057l2.145 5.685c1.95 5.167 7.72 7.779 12.887 5.825 5.168-1.949 7.775-7.719 5.826-12.886l-18.418-48.803c-.034-.093-.07-.185-.108-.275-1.723-4.186-5.759-6.89-10.285-6.89h-.012c-4.531.005-8.566 2.718-10.282 6.911-.03.075-.061.151-.089.227l-18.586 48.801c-1.967 5.161.623 10.939 5.784 12.904zm23.59-31.499h-.892l.448-1.177z"/><path d="m273.28 340.564c.717.123 1.111.19 6.805.19 2.7 0 6.591-.016 12.272-.047 5.523-.031 9.975-4.533 9.944-10.056-.031-5.504-4.502-9.944-9.999-9.944h-.057c-2.421.014-4.942.024-7.276.032v-39.488c0-5.523-4.478-10-10-10s-10 4.477-10 10v49.456c.001 4.871 3.51 9.033 8.311 9.857z"/><path d="m329.626 340.749c5.522 0 10-4.477 10-10v-49.498c0-5.523-4.478-10-10-10-5.523 0-10 4.477-10 10v49.498c0 5.523 4.477 10 10 10z"/><path d="m423.515 308.429-.054 22.296c-.014 5.522 4.453 10.011 9.976 10.024h.024c5.512 0 9.986-4.461 10-9.976l.054-22.329 14.069-21.612c3.013-4.629 1.703-10.823-2.925-13.837-4.629-3.015-10.823-1.702-13.837 2.925l-7.313 11.233-7.425-11.37c-3.018-4.624-9.214-5.928-13.84-2.906-4.625 3.02-5.926 9.216-2.906 13.84z"/><path d="m145.941 336.567c4.332 2.767 9.207 4.174 14.495 4.182h.037c4.519 0 8.774-.989 12.649-2.94 9.563-4.816 14.83-12.819 14.83-22.533v-34.024c0-5.523-4.477-10-10-10-5.522 0-10 4.477-10 10v34.024c0 1.093 0 2.744-3.825 4.671-1.073.54-2.268.803-3.651.803h-.013c-1.459-.002-2.652-.332-3.755-1.036-3.149-2.012-3.149-3.227-3.149-4.402v-34.059c0-5.523-4.478-10-10-10-5.523 0-10 4.477-10 10v34.059c.001 8.854 4.166 16.005 12.382 21.255z"/><path d="m365.31 291.251h3.612v39.498c0 5.523 4.478 10 10 10s10-4.477 10-10v-39.498h3.723c5.522 0 10-4.478 10-10 0-5.523-4.478-10-10-10h-27.335c-5.522 0-10 4.477-10 10 0 5.522 4.477 10 10 10z"/><path d="m87.546 340.749c6.052 0 11.748-1.556 16.709-4.288l1.159 1.159c1.953 1.952 4.512 2.929 7.071 2.929 2.56 0 5.118-.977 7.071-2.929 3.905-3.905 3.905-10.237 0-14.143l-1.276-1.276c2.562-4.84 4.013-10.354 4.013-16.202 0-19.161-15.588-34.749-34.748-34.749-19.161 0-34.749 15.588-34.749 34.749s15.589 34.75 34.75 34.75zm0-49.498c8.132 0 14.748 6.616 14.748 14.749 0 .151-.003.302-.007.452-3.894-2.662-9.25-2.266-12.708 1.19-3.564 3.564-3.875 9.148-.934 13.066-.363.027-.73.041-1.099.041-8.133 0-14.749-6.616-14.749-14.749s6.616-14.749 14.749-14.749z"/><path d="m297.013 118.013-20.821-5.672-11.816-18.11c-1.847-2.829-4.996-4.535-8.375-4.535s-6.528 1.706-8.375 4.535l-11.816 18.11-20.821 5.672c-3.252.886-5.839 3.351-6.882 6.556-1.042 3.205-.4 6.72 1.708 9.349l13.532 16.874-1.057 21.632c-.164 3.371 1.383 6.598 4.114 8.581 2.732 1.98 6.279 2.452 9.435 1.251l20.161-7.683 20.162 7.682c1.154.439 2.36.655 3.56.655 2.081 0 4.142-.65 5.875-1.906 2.731-1.983 4.278-5.21 4.114-8.581l-1.057-21.632 13.532-16.874c2.108-2.629 2.75-6.144 1.708-9.349s-3.629-5.67-6.881-6.555zm-26.333 23.223c-1.527 1.905-2.306 4.304-2.186 6.743l.495 10.14-9.428-3.592c-1.146-.436-2.353-.655-3.56-.655s-2.414.219-3.561.655l-9.428 3.592.495-10.14c.119-2.44-.659-4.838-2.187-6.743l-6.363-7.934 9.776-2.663c2.363-.644 4.408-2.133 5.747-4.184l5.52-8.46 5.52 8.46c1.339 2.051 3.384 3.54 5.747 4.184l9.776 2.663z"/><path d="m387.521 141.765-14.497-3.948-8.229-12.611c-1.846-2.83-4.996-4.536-8.375-4.536s-6.529 1.706-8.375 4.536l-8.227 12.611-14.497 3.948c-3.252.886-5.839 3.35-6.882 6.555-1.042 3.205-.4 6.72 1.708 9.35l9.425 11.753-.736 15.067c-.164 3.372 1.383 6.599 4.114 8.581 2.732 1.982 6.278 2.453 9.435 1.252l14.036-5.348 14.037 5.348c1.154.439 2.36.655 3.56.655 2.081 0 4.143-.649 5.875-1.907 2.731-1.982 4.279-5.21 4.114-8.581l-.737-15.067 9.426-11.753c2.108-2.629 2.75-6.145 1.708-9.35-1.045-3.206-3.632-5.67-6.883-6.555zm-22.227 18.103c-1.527 1.905-2.306 4.305-2.187 6.744l.175 3.574-3.302-1.258c-2.295-.873-4.828-.873-7.121 0l-3.302 1.258.175-3.574c.119-2.439-.659-4.839-2.186-6.744l-2.256-2.813 3.452-.94c2.363-.644 4.409-2.133 5.747-4.185l1.931-2.96 1.932 2.96c1.339 2.052 3.384 3.541 5.747 4.185l3.452.94z"/><path d="m186.68 141.765-14.497-3.948-8.228-12.611c-1.846-2.83-4.996-4.536-8.375-4.536s-6.529 1.706-8.375 4.536l-8.229 12.611-14.497 3.948c-3.252.886-5.839 3.35-6.882 6.555-1.042 3.205-.4 6.721 1.708 9.35l9.426 11.753-.737 15.067c-.165 3.371 1.383 6.599 4.114 8.581 1.733 1.258 3.794 1.907 5.875 1.907 1.199 0 2.405-.216 3.56-.655l14.037-5.348 14.036 5.348c3.158 1.202 6.703.731 9.435-1.252 2.731-1.982 4.278-5.209 4.114-8.581l-.736-15.067 9.425-11.753c2.108-2.63 2.75-6.145 1.708-9.35-1.043-3.206-3.63-5.67-6.882-6.555zm-22.226 18.103c-1.527 1.905-2.306 4.305-2.187 6.744l.175 3.574-3.302-1.258c-1.147-.436-2.354-.655-3.561-.655s-2.414.219-3.561.655l-3.302 1.258.175-3.574c.119-2.439-.659-4.839-2.186-6.744l-2.257-2.813 3.452-.94c2.363-.644 4.408-2.133 5.747-4.185l1.932-2.96 1.931 2.96c1.338 2.052 3.384 3.541 5.747 4.185l3.452.94z"/></g></g></g></g></svg>